<?xml version="1.0" encoding="utf-8"?>
<!-- Generator: Adobe Illustrator 18.0.0, SVG Export Plug-In . SVG Version: 6.00 Build 0)  -->
<!DOCTYPE svg PUBLIC "-//W3C//DTD SVG 1.1//EN" "http://www.w3.org/Graphics/SVG/1.1/DTD/svg11.dtd">
<svg version="1.1" id="Capa_1" xmlns="http://www.w3.org/2000/svg" xmlns:xlink="http://www.w3.org/1999/xlink" x="0px" y="0px"
	 viewBox="-29 0 569 656" enable-background="new -29 0 569 656" xml:space="preserve">
<g>
	<path fill="#4086F4" d="M489.7,154.6l-44.6,10.1l13.4-63.5C412,40.3,338.5,0,256,0C115.3,0,0,115.3,0,256
		c0,27.9,5.5,54.6,13.9,79.8l46-3.8l-18.7,61.1C86.5,463.9,165.7,512,256,512c140.7,0,256-115.3,256-256
		C512,220,503.5,185.8,489.7,154.6L489.7,154.6z"/>
	<path fill="#4175DF" d="M512,256c0-36-8.5-70.2-22.3-101.4l-44.6,10.1l13.4-63.5C412,40.3,338.5,0,256,0v512
		C396.7,512,512,396.7,512,256z"/>
	<g>
		<g>
			<g>
				<path fill="#E3E7EA" d="M196,238.3L41.2,393.1c-11.4-17.7-20.7-36.9-27.3-57.3L153.7,196l42,5.4L196,238.3z"/>
			</g>
		</g>
	</g>
	<g>
		<path fill="#FFF5F5" d="M489.7,154.6L322.3,322.3c-11.7,11.7-30.9,11.7-42.6,0l-83.7-84L153.7,196l21-21.3
			c11.7-11.7,30.9-11.7,42.6,0l83.7,84l157.5-157.5C471.1,117.4,481.6,135.4,489.7,154.6L489.7,154.6z"/>
	</g>
	<g>
		<path fill="#E3E7EA" d="M301,258.7l-45-45.2v85l23.7,23.8c11.7,11.7,30.9,11.7,42.6,0l167.4-167.7c-8.1-19.2-18.6-37.2-31.2-53.4
			L301,258.7z"/>
	</g>
</g>
<text transform="matrix(1 0 0 1 112.6134 583.803)" fill="#DDC619" font-family="'MyriadPro-Regular'" font-size="62">Creador de </text>
<text transform="matrix(1 0 0 1 107.5541 640.4696)" fill="#DDC619" font-family="'MyriadPro-Regular'" font-size="64">Curriculum</text>
</svg>
